<?xml version="1.0" encoding="UTF-8" standalone="no" ?>
<!DOCTYPE svg PUBLIC "-//W3C//DTD SVG 1.1//EN" "http://www.w3.org/Graphics/SVG/1.1/DTD/svg11.dtd">
<svg xmlns="http://www.w3.org/2000/svg" xmlns:xlink="http://www.w3.org/1999/xlink" version="1.1" width="640" height="480" viewBox="0 0 640 480" xml:space="preserve">
<desc>Created with Fabric.js 3.6.6</desc>
<defs>
</defs>
<g transform="matrix(1.27 0 0 1.27 319.85 240.09)"  >
<g style=""   >
		<g transform="matrix(2.07 0 0 2.07 -0.5 -0.25)"  >
<path style="stroke: none; stroke-width: 1; stroke-dasharray: none; stroke-linecap: butt; stroke-dashoffset: 0; stroke-linejoin: miter; stroke-miterlimit: 4; fill: rgb(255,255,255); fill-rule: nonzero; opacity: 1;"  transform=" translate(-55.5, -83.1)" d="M 110.3 146.6 c -9.9 -2.5 -18.8 -7.2 -25.9 -14 c -11 -10.5 -17.1 -25.1 -17.1 -41 c 0 -6.6 1.1 -13 3.1 -18.9 c 0 -0.1 0 -0.1 0 -0.2 h 0.1 c 2.2 -6.6 5.6 -12.6 10.1 -17.8 l -9.5 -6.2 c 6.7 -4.9 11.1 -12.7 11.1 -21.6 c 0 -11.2 -6.9 -20.8 -16.7 -24.8 l 0 0 C 62.4 0.7 59 0 55.5 0 C 40.8 0 28.8 12 28.8 26.7 c 0 8.9 4.4 16.8 11.1 21.6 L 20.6 61.1 c 0 4.3 1 7.7 3 11.4 h 17 c -0.1 1.6 -0.1 3.7 -0.1 6.3 c -0.3 9.3 -3.1 24.3 -25 41.1 c -5.7 4.3 -10 10.5 -12.6 17.9 c 0 0.1 -0.1 0.1 -0.1 0.2 c -0.1 0.3 -0.2 0.6 -0.3 0.9 l 0 0 l 0 0 c -1.6 5 -2.5 10.5 -2.5 16.5 c 0 0.7 1.5 10.8 55.5 10.8 s 55.5 -10.1 55.5 -10.8 C 111 152.3 110.8 149.4 110.3 146.6 L 110.3 146.6 z" stroke-linecap="round" />
</g>
		<g transform="matrix(-2.07 0 0 2.07 0.5 0.25)"  >
<path style="stroke: none; stroke-width: 1; stroke-dasharray: none; stroke-linecap: butt; stroke-dashoffset: 0; stroke-linejoin: miter; stroke-miterlimit: 4; fill: rgb(255,255,255); fill-rule: nonzero; opacity: 1;"  transform=" translate(-55.5, -83.1)" d="M 110.3 146.6 c -9.9 -2.5 -18.8 -7.2 -25.9 -14 c -11 -10.5 -17.1 -25.1 -17.1 -41 c 0 -6.6 1.1 -13 3.1 -18.9 c 0 -0.1 0 -0.1 0 -0.2 h 0.1 c 2.2 -6.6 5.6 -12.6 10.1 -17.8 l -9.5 -6.2 c 6.7 -4.9 11.1 -12.7 11.1 -21.6 c 0 -11.2 -6.9 -20.8 -16.7 -24.8 l 0 0 C 62.4 0.7 59 0 55.5 0 C 40.8 0 28.8 12 28.8 26.7 c 0 8.9 4.4 16.8 11.1 21.6 L 20.6 61.1 c 0 4.3 1 7.7 3 11.4 h 17 c -0.1 1.6 -0.1 3.7 -0.1 6.3 c -0.3 9.3 -3.1 24.3 -25 41.1 c -5.7 4.3 -10 10.5 -12.6 17.9 c 0 0.1 -0.1 0.1 -0.1 0.2 c -0.1 0.3 -0.2 0.6 -0.3 0.9 l 0 0 l 0 0 c -1.6 5 -2.5 10.5 -2.5 16.5 c 0 0.7 1.5 10.8 55.5 10.8 s 55.5 -10.1 55.5 -10.8 C 111 152.3 110.8 149.4 110.3 146.6 L 110.3 146.6 z" stroke-linecap="round" />
</g>
</g>
</g>
</svg>